<svg width="512" height="512" viewBox="0 0 512 512" fill="none" xmlns="http://www.w3.org/2000/svg">
  <rect width="512" height="512" rx="128" fill="#0ea5e9"/>
  <circle cx="256" cy="256" r="170" fill="white"/>
  <path d="M256 86C158.9 86 86 158.9 86 256s72.9 170 170 170 170-72.9 170-170-72.9-170-170-170zm0 298c-70.7 0-128-57.3-128-128s57.3-128 128-128 128 57.3 128 128-57.3 128-128 128z" fill="#0ea5e9"/>
  <path d="M256 128c-70.7 0-128 57.3-128 128s57.3 128 128 128 128-57.3 128-128-57.3-128-128-128zm0 192c-35.3 0-64-28.7-64-64s28.7-64 64-64 64 28.7 64 64-28.7 64-64 64z" fill="#0ea5e9"/>
  <circle cx="256" cy="256" r="32" fill="#0ea5e9"/>
</svg>
