<svg width="192" height="192" viewBox="0 0 192 192" fill="none" xmlns="http://www.w3.org/2000/svg">
  <rect width="192" height="192" rx="48" fill="#0ea5e9"/>
  <circle cx="96" cy="96" r="64" fill="white"/>
  <path d="M96 40C65.1 40 40 65.1 40 96s25.1 56 56 56 56-25.1 56-56-25.1-56-56-56zm0 96c-22.1 0-40-17.9-40-40s17.9-40 40-40 40 17.9 40 40-17.9 40-40 40z" fill="#0ea5e9"/>
  <path d="M96 64c-17.7 0-32 14.3-32 32s14.3 32 32 32 32-14.3 32-32-14.3-32-32-32zm0 48c-8.8 0-16-7.2-16-16s7.2-16 16-16 16 7.2 16 16-7.2 16-16 16z" fill="#0ea5e9"/>
  <circle cx="96" cy="96" r="8" fill="#0ea5e9"/>
</svg>
